ply
format ascii 1.0
element vertex 357
property float x
property float y
property float z
property int group_id
end_header
0.000000 0.000000 0.000000 0
0.010000 -0.000094 0.000000 0
0.019996 -0.000377 0.000000 0
0.029988 -0.000848 0.000000 0
0.039972 -0.001508 0.000000 0
0.049944 -0.002355 0.000000 0
0.059904 -0.003391 0.000000 0
0.069848 -0.004615 0.000000 0
0.079773 -0.006026 0.000000 0
0.089676 -0.007625 0.000000 0
0.099556 -0.009411 0.000000 0
0.109409 -0.011384 0.000000 0
0.119233 -0.013543 0.000000 0
0.129025 -0.015888 0.000000 0
0.138783 -0.018419 0.000000 0
0.148504 -0.021135 0.000000 0
0.158184 -0.024036 0.000000 0
0.167823 -0.027121 0.000000 0
0.177416 -0.030390 0.000000 0
0.186962 -0.033842 0.000000 0
0.196457 -0.037476 0.000000 0
0.205900 -0.041292 0.000000 0
0.215288 -0.045290 0.000000 0
0.224617 -0.049468 0.000000 0
0.233886 -0.053825 0.000000 0
0.243092 -0.058361 0.000000 0
0.252233 -0.063076 0.000000 0
0.261305 -0.067968 0.000000 0
0.270307 -0.073036 0.000000 0
0.279235 -0.078279 0.000000 0
0.288088 -0.083697 0.000000 0
0.296863 -0.089289 0.000000 0
0.305557 -0.095053 0.000000 0
0.314167 -0.100989 0.000000 0
0.322693 -0.107095 0.000000 0
0.331130 -0.113371 0.000000 0
0.339477 -0.119815 0.000000 0
0.347730 -0.126426 0.000000 0
0.355889 -0.133203 0.000000 0
0.363950 -0.140145 0.000000 0
0.371911 -0.147250 0.000000 0
0.379769 -0.154517 0.000000 0
0.387523 -0.161945 0.000000 0
0.395169 -0.169533 0.000000 0
0.402706 -0.177279 0.000000 0
0.410131 -0.185181 0.000000 0
0.417443 -0.193239 0.000000 0
0.424638 -0.201451 0.000000 0
0.431715 -0.209816 0.000000 0
0.438670 -0.218331 0.000000 0
0.445503 -0.226995 0.000000 0
0.000000 0.000000 0.000000 1
0.010000 -0.000063 0.000000 1
0.019998 -0.000251 0.000000 1
0.029995 -0.000565 0.000000 1
0.039987 -0.001005 0.000000 1
0.049975 -0.001571 0.000000 1
0.059957 -0.002261 0.000000 1
0.069932 -0.003078 0.000000 1
0.079899 -0.004020 0.000000 1
0.089856 -0.005087 0.000000 1
0.099803 -0.006279 0.000000 1
0.109737 -0.007597 0.000000 1
0.119659 -0.009039 0.000000 1
0.129567 -0.010607 0.000000 1
0.139459 -0.012299 0.000000 1
0.149334 -0.014116 0.000000 1
0.159192 -0.016058 0.000000 1
0.169031 -0.018124 0.000000 1
0.178850 -0.020314 0.000000 1
0.188648 -0.022628 0.000000 1
0.198423 -0.025067 0.000000 1
0.208175 -0.027629 0.000000 1
0.217902 -0.030314 0.000000 1
0.227603 -0.033122 0.000000 1
0.237276 -0.036054 0.000000 1
0.246922 -0.039109 0.000000 1
0.256538 -0.042286 0.000000 1
0.266124 -0.045585 0.000000 1
0.275678 -0.049006 0.000000 1
0.285199 -0.052550 0.000000 1
0.294686 -0.056214 0.000000 1
0.304138 -0.060000 0.000000 1
0.313554 -0.063907 0.000000 1
0.322932 -0.067935 0.000000 1
0.332271 -0.072082 0.000000 1
0.341571 -0.076350 0.000000 1
0.350830 -0.080737 0.000000 1
0.360046 -0.085244 0.000000 1
0.369220 -0.089870 0.000000 1
0.378349 -0.094614 0.000000 1
0.387433 -0.099476 0.000000 1
0.396471 -0.104456 0.000000 1
0.405460 -0.109553 0.000000 1
0.414401 -0.114768 0.000000 1
0.423292 -0.120099 0.000000 1
0.432132 -0.125546 0.000000 1
0.440920 -0.131109 0.000000 1
0.449655 -0.136787 0.000000 1
0.458335 -0.142580 0.000000 1
0.466960 -0.148487 0.000000 1
0.475528 -0.154508 0.000000 1
0.000000 0.000000 0.000000 2
0.010000 -0.000031 0.000000 2
0.020000 -0.000126 0.000000 2
0.029999 -0.000283 0.000000 2
0.039997 -0.000503 0.000000 2
0.049994 -0.000785 0.000000 2
0.059989 -0.001131 0.000000 2
0.069983 -0.001539 0.000000 2
0.079975 -0.002010 0.000000 2
0.089964 -0.002544 0.000000 2
0.099951 -0.003141 0.000000 2
0.109934 -0.003801 0.000000 2
0.119915 -0.004523 0.000000 2
0.129892 -0.005308 0.000000 2
0.139865 -0.006156 0.000000 2
0.149833 -0.007066 0.000000 2
0.159798 -0.008039 0.000000 2
0.169758 -0.009075 0.000000 2
0.179712 -0.010173 0.000000 2
0.189662 -0.011334 0.000000 2
0.199605 -0.012558 0.000000 2
0.209543 -0.013844 0.000000 2
0.219475 -0.015193 0.000000 2
0.229400 -0.016605 0.000000 2
0.239318 -0.018078 0.000000 2
0.249229 -0.019615 0.000000 2
0.259133 -0.021214 0.000000 2
0.269029 -0.022875 0.000000 2
0.278917 -0.024598 0.000000 2
0.288797 -0.026384 0.000000 2
0.298669 -0.028232 0.000000 2
0.308531 -0.030143 0.000000 2
0.318384 -0.032116 0.000000 2
0.328228 -0.034151 0.000000 2
0.338062 -0.036248 0.000000 2
0.347886 -0.038407 0.000000 2
0.357700 -0.040628 0.000000 2
0.367503 -0.042912 0.000000 2
0.377295 -0.045257 0.000000 2
0.387076 -0.047664 0.000000 2
0.396846 -0.050133 0.000000 2
0.406604 -0.052664 0.000000 2
0.416349 -0.055257 0.000000 2
0.426082 -0.057912 0.000000 2
0.435803 -0.060628 0.000000 2
0.445511 -0.063406 0.000000 2
0.455205 -0.066245 0.000000 2
0.464886 -0.069146 0.000000 2
0.474553 -0.072108 0.000000 2
0.484206 -0.075132 0.000000 2
0.493844 -0.078217 0.000000 2
0.000000 0.000000 0.000000 3
0.010000 0.000000 0.000000 3
0.020000 0.000000 0.000000 3
0.030000 0.000000 0.000000 3
0.040000 0.000000 0.000000 3
0.050000 0.000000 0.000000 3
0.060000 0.000000 0.000000 3
0.070000 0.000000 0.000000 3
0.080000 0.000000 0.000000 3
0.090000 0.000000 0.000000 3
0.100000 0.000000 0.000000 3
0.110000 0.000000 0.000000 3
0.120000 0.000000 0.000000 3
0.130000 0.000000 0.000000 3
0.140000 0.000000 0.000000 3
0.150000 0.000000 0.000000 3
0.160000 0.000000 0.000000 3
0.170000 0.000000 0.000000 3
0.180000 0.000000 0.000000 3
0.190000 0.000000 0.000000 3
0.200000 0.000000 0.000000 3
0.210000 0.000000 0.000000 3
0.220000 0.000000 0.000000 3
0.230000 0.000000 0.000000 3
0.240000 0.000000 0.000000 3
0.250000 0.000000 0.000000 3
0.260000 0.000000 0.000000 3
0.270000 0.000000 0.000000 3
0.280000 0.000000 0.000000 3
0.290000 0.000000 0.000000 3
0.300000 0.000000 0.000000 3
0.310000 0.000000 0.000000 3
0.320000 0.000000 0.000000 3
0.330000 0.000000 0.000000 3
0.340000 0.000000 0.000000 3
0.350000 0.000000 0.000000 3
0.360000 0.000000 0.000000 3
0.370000 0.000000 0.000000 3
0.380000 0.000000 0.000000 3
0.390000 0.000000 0.000000 3
0.400000 0.000000 0.000000 3
0.410000 0.000000 0.000000 3
0.420000 0.000000 0.000000 3
0.430000 0.000000 0.000000 3
0.440000 0.000000 0.000000 3
0.450000 0.000000 0.000000 3
0.460000 0.000000 0.000000 3
0.470000 0.000000 0.000000 3
0.480000 0.000000 0.000000 3
0.490000 0.000000 0.000000 3
0.500000 0.000000 0.000000 3
0.000000 0.000000 0.000000 4
0.010000 0.000031 0.000000 4
0.020000 0.000126 0.000000 4
0.029999 0.000283 0.000000 4
0.039997 0.000503 0.000000 4
0.049994 0.000785 0.000000 4
0.059989 0.001131 0.000000 4
0.069983 0.001539 0.000000 4
0.079975 0.002010 0.000000 4
0.089964 0.002544 0.000000 4
0.099951 0.003141 0.000000 4
0.109934 0.003801 0.000000 4
0.119915 0.004523 0.000000 4
0.129892 0.005308 0.000000 4
0.139865 0.006156 0.000000 4
0.149833 0.007066 0.000000 4
0.159798 0.008039 0.000000 4
0.169758 0.009075 0.000000 4
0.179712 0.010173 0.000000 4
0.189662 0.011334 0.000000 4
0.199605 0.012558 0.000000 4
0.209543 0.013844 0.000000 4
0.219475 0.015193 0.000000 4
0.229400 0.016605 0.000000 4
0.239318 0.018078 0.000000 4
0.249229 0.019615 0.000000 4
0.259133 0.021214 0.000000 4
0.269029 0.022875 0.000000 4
0.278917 0.024598 0.000000 4
0.288797 0.026384 0.000000 4
0.298669 0.028232 0.000000 4
0.308531 0.030143 0.000000 4
0.318384 0.032116 0.000000 4
0.328228 0.034151 0.000000 4
0.338062 0.036248 0.000000 4
0.347886 0.038407 0.000000 4
0.357700 0.040628 0.000000 4
0.367503 0.042912 0.000000 4
0.377295 0.045257 0.000000 4
0.387076 0.047664 0.000000 4
0.396846 0.050133 0.000000 4
0.406604 0.052664 0.000000 4
0.416349 0.055257 0.000000 4
0.426082 0.057912 0.000000 4
0.435803 0.060628 0.000000 4
0.445511 0.063406 0.000000 4
0.455205 0.066245 0.000000 4
0.464886 0.069146 0.000000 4
0.474553 0.072108 0.000000 4
0.484206 0.075132 0.000000 4
0.493844 0.078217 0.000000 4
0.000000 0.000000 0.000000 5
0.010000 0.000063 0.000000 5
0.019998 0.000251 0.000000 5
0.029995 0.000565 0.000000 5
0.039987 0.001005 0.000000 5
0.049975 0.001571 0.000000 5
0.059957 0.002261 0.000000 5
0.069932 0.003078 0.000000 5
0.079899 0.004020 0.000000 5
0.089856 0.005087 0.000000 5
0.099803 0.006279 0.000000 5
0.109737 0.007597 0.000000 5
0.119659 0.009039 0.000000 5
0.129567 0.010607 0.000000 5
0.139459 0.012299 0.000000 5
0.149334 0.014116 0.000000 5
0.159192 0.016058 0.000000 5
0.169031 0.018124 0.000000 5
0.178850 0.020314 0.000000 5
0.188648 0.022628 0.000000 5
0.198423 0.025067 0.000000 5
0.208175 0.027629 0.000000 5
0.217902 0.030314 0.000000 5
0.227603 0.033122 0.000000 5
0.237276 0.036054 0.000000 5
0.246922 0.039109 0.000000 5
0.256538 0.042286 0.000000 5
0.266124 0.045585 0.000000 5
0.275678 0.049006 0.000000 5
0.285199 0.052550 0.000000 5
0.294686 0.056214 0.000000 5
0.304138 0.060000 0.000000 5
0.313554 0.063907 0.000000 5
0.322932 0.067935 0.000000 5
0.332271 0.072082 0.000000 5
0.341571 0.076350 0.000000 5
0.350830 0.080737 0.000000 5
0.360046 0.085244 0.000000 5
0.369220 0.089870 0.000000 5
0.378349 0.094614 0.000000 5
0.387433 0.099476 0.000000 5
0.396471 0.104456 0.000000 5
0.405460 0.109553 0.000000 5
0.414401 0.114768 0.000000 5
0.423292 0.120099 0.000000 5
0.432132 0.125546 0.000000 5
0.440920 0.131109 0.000000 5
0.449655 0.136787 0.000000 5
0.458335 0.142580 0.000000 5
0.466960 0.148487 0.000000 5
0.475528 0.154508 0.000000 5
0.000000 0.000000 0.000000 6
0.010000 0.000094 0.000000 6
0.019996 0.000377 0.000000 6
0.029988 0.000848 0.000000 6
0.039972 0.001508 0.000000 6
0.049944 0.002355 0.000000 6
0.059904 0.003391 0.000000 6
0.069848 0.004615 0.000000 6
0.079773 0.006026 0.000000 6
0.089676 0.007625 0.000000 6
0.099556 0.009411 0.000000 6
0.109409 0.011384 0.000000 6
0.119233 0.013543 0.000000 6
0.129025 0.015888 0.000000 6
0.138783 0.018419 0.000000 6
0.148504 0.021135 0.000000 6
0.158184 0.024036 0.000000 6
0.167823 0.027121 0.000000 6
0.177416 0.030390 0.000000 6
0.186962 0.033842 0.000000 6
0.196457 0.037476 0.000000 6
0.205900 0.041292 0.000000 6
0.215288 0.045290 0.000000 6
0.224617 0.049468 0.000000 6
0.233886 0.053825 0.000000 6
0.243092 0.058361 0.000000 6
0.252233 0.063076 0.000000 6
0.261305 0.067968 0.000000 6
0.270307 0.073036 0.000000 6
0.279235 0.078279 0.000000 6
0.288088 0.083697 0.000000 6
0.296863 0.089289 0.000000 6
0.305557 0.095053 0.000000 6
0.314167 0.100989 0.000000 6
0.322693 0.107095 0.000000 6
0.331130 0.113371 0.000000 6
0.339477 0.119815 0.000000 6
0.347730 0.126426 0.000000 6
0.355889 0.133203 0.000000 6
0.363950 0.140145 0.000000 6
0.371911 0.147250 0.000000 6
0.379769 0.154517 0.000000 6
0.387523 0.161945 0.000000 6
0.395169 0.169533 0.000000 6
0.402706 0.177279 0.000000 6
0.410131 0.185181 0.000000 6
0.417443 0.193239 0.000000 6
0.424638 0.201451 0.000000 6
0.431715 0.209816 0.000000 6
0.438670 0.218331 0.000000 6
0.445503 0.226995 0.000000 6
