ply
format ascii 1.0
element vertex 343
property float end_x
property float end_y
property float end_z
property int path_id
property int group_id
end_header
0.839712 -1.242934 0.000000 0 0
0.920291 -1.184510 0.000000 1 0
0.996819 -1.120871 0.000000 2 0
1.068958 -1.052297 0.000000 3 0
1.136390 -0.979090 0.000000 4 0
1.198819 -0.901572 0.000000 5 0
1.255970 -0.820085 0.000000 6 0
0.962024 -1.150874 0.000000 7 0
1.036229 -1.084541 0.000000 8 0
1.105872 -1.013434 0.000000 9 0
1.170646 -0.937864 0.000000 10 0
1.230265 -0.858165 0.000000 11 0
1.284468 -0.774688 0.000000 12 0
1.333016 -0.687800 0.000000 13 0
1.074316 -1.046826 0.000000 14 0
1.141374 -0.973276 0.000000 15 0
1.203406 -0.895440 0.000000 16 0
1.260140 -0.813662 0.000000 17 0
1.311326 -0.728302 0.000000 18 0
1.356739 -0.639735 0.000000 19 0
1.396177 -0.548351 0.000000 20 0
1.175418 -0.931876 0.000000 21 0
1.234630 -0.851873 0.000000 22 0
1.288406 -0.768121 0.000000 23 0
1.336510 -0.680986 0.000000 24 0
1.378729 -0.590853 0.000000 25 0
1.414877 -0.498118 0.000000 26 0
1.444797 -0.403191 0.000000 27 0
1.264278 -0.807219 0.000000 28 0
1.315027 -0.721598 0.000000 29 0
1.359987 -0.632800 0.000000 30 0
1.398959 -0.541216 0.000000 31 0
1.431771 -0.447249 0.000000 32 0
1.458279 -0.351313 0.000000 33 0
1.478367 -0.253831 0.000000 34 0
1.339969 -0.674154 0.000000 35 0
1.381727 -0.583807 0.000000 36 0
1.417402 -0.490889 0.000000 37 0
1.446836 -0.395810 0.000000 38 0
1.469900 -0.298988 0.000000 39 0
1.486492 -0.200850 0.000000 40 0
1.496540 -0.101827 0.000000 41 0
1.401703 -0.534067 0.000000 42 0
1.434035 -0.439934 0.000000 43 0
1.460054 -0.343864 0.000000 44 0
1.479644 -0.246280 0.000000 45 0
1.492719 -0.147612 0.000000 46 0
1.499222 -0.048294 0.000000 47 0
1.499125 0.051237 0.000000 48 0
1.023811 -1.096271 0.000000 49 1
1.094259 -1.025962 0.000000 50 1
1.159889 -0.951135 0.000000 51 1
1.220413 -0.872120 0.000000 52 1
1.275563 -0.789265 0.000000 53 1
1.325097 -0.702936 0.000000 54 1
1.368797 -0.613511 0.000000 55 1
1.130216 -0.986211 0.000000 56 1
1.193131 -0.909087 0.000000 57 1
1.250793 -0.827960 0.000000 58 1
1.302947 -0.743188 0.000000 59 1
1.349365 -0.655144 0.000000 60 1
1.389842 -0.564215 0.000000 61 1
1.424200 -0.470802 0.000000 62 1
1.224849 -0.865878 0.000000 63 1
1.279575 -0.782743 0.000000 64 1
1.328668 -0.696162 0.000000 65 1
1.371911 -0.606515 0.000000 66 1
1.409113 -0.514199 0.000000 67 1
1.440111 -0.419618 0.000000 68 1
1.464769 -0.323190 0.000000 69 1
1.306724 -0.736527 0.000000 70 1
1.352692 -0.648247 0.000000 71 1
1.392704 -0.557113 0.000000 72 1
1.426585 -0.463525 0.000000 73 1
1.454184 -0.367898 0.000000 74 1
1.475381 -0.270650 0.000000 75 1
1.490082 -0.172211 0.000000 76 1
1.374989 -0.599504 0.000000 77 1
1.411720 -0.506998 0.000000 78 1
1.442235 -0.412261 0.000000 79 1
1.466400 -0.315708 0.000000 80 1
1.484109 -0.217765 0.000000 81 1
1.495283 -0.118863 0.000000 82 1
1.499874 -0.019438 0.000000 83 1
1.428933 -0.456237 0.000000 84 1
1.456043 -0.360469 0.000000 85 1
1.476743 -0.263115 0.000000 86 1
1.490941 -0.164601 0.000000 87 1
1.498575 -0.065364 0.000000 88 1
1.499611 0.034162 0.000000 89 1
1.494044 0.133537 0.000000 90 1
1.467993 -0.308217 0.000000 91 1
1.485201 -0.210185 0.000000 92 1
1.495870 -0.111228 0.000000 93 1
1.499954 -0.011781 0.000000 94 1
1.497433 0.087718 0.000000 95 1
1.488319 0.186831 0.000000 96 1
1.472653 0.285121 0.000000 97 1
1.182701 -0.922615 0.000000 98 2
1.241283 -0.842150 0.000000 99 2
1.294399 -0.757978 0.000000 100 2
1.341817 -0.670468 0.000000 101 2
1.383327 -0.580006 0.000000 102 2
1.418746 -0.486991 0.000000 103 2
1.447919 -0.391831 0.000000 104 2
1.270579 -0.797264 0.000000 105 2
1.320654 -0.711248 0.000000 106 2
1.364915 -0.622099 0.000000 107 2
1.403166 -0.530212 0.000000 108 2
1.435239 -0.435991 0.000000 109 2
1.460994 -0.339849 0.000000 110 2
1.480315 -0.242212 0.000000 111 2
1.345222 -0.663609 0.000000 112 2
1.386270 -0.572937 0.000000 113 2
1.421214 -0.479741 0.000000 114 2
1.449900 -0.384434 0.000000 115 2
1.472203 -0.287434 0.000000 116 2
1.488024 -0.189169 0.000000 117 2
1.497293 -0.090070 0.000000 118 2
1.405855 -0.523042 0.000000 119 2
1.437446 -0.428658 0.000000 120 2
1.462710 -0.332387 0.000000 121 2
1.481533 -0.234652 0.000000 122 2
1.493833 -0.135884 0.000000 123 2
1.499555 -0.036517 0.000000 124 2
1.498676 0.063010 0.000000 125 2
1.451844 -0.377027 0.000000 126 2
1.473651 -0.279915 0.000000 127 2
1.488970 -0.181570 0.000000 128 2
1.497734 -0.082425 0.000000 129 2
1.499903 0.017082 0.000000 130 2
1.495468 0.116514 0.000000 131 2
1.484449 0.215433 0.000000 132 2
1.482711 -0.227085 0.000000 133 2
1.494507 -0.128256 0.000000 134 2
1.499722 -0.028862 0.000000 135 2
1.498335 0.070660 0.000000 136 2
1.490350 0.169870 0.000000 137 2
1.475804 0.268332 0.000000 138 2
1.454760 0.365613 0.000000 139 2
1.498135 -0.074778 0.000000 140 2
1.499796 0.024739 0.000000 141 2
1.494854 0.124147 0.000000 142 2
1.483330 0.223009 0.000000 143 2
1.465275 0.320888 0.000000 144 2
1.440769 0.417355 0.000000 145 2
1.409919 0.511985 0.000000 146 2
1.312469 -0.726241 0.000000 147 3
1.357742 -0.637603 0.000000 148 3
1.397037 -0.546157 0.000000 149 3
1.430181 -0.452307 0.000000 150 3
1.457029 -0.356465 0.000000 151 3
1.477461 -0.259054 0.000000 152 3
1.491388 -0.160502 0.000000 153 3
1.379655 -0.588686 0.000000 154 3
1.415658 -0.495895 0.000000 155 3
1.445428 -0.400921 0.000000 156 3
1.468834 -0.304181 0.000000 157 3
1.485773 -0.206102 0.000000 158 3
1.496171 -0.107116 0.000000 159 3
1.499980 -0.007658 0.000000 160 3
1.432472 -0.445000 0.000000 161 3
1.458829 -0.349022 0.000000 162 3
1.478764 -0.251508 0.000000 163 3
1.492188 -0.152887 0.000000 164 3
1.499042 -0.053592 0.000000 165 3
1.499296 0.045939 0.000000 166 3
1.492949 0.145267 0.000000 167 3
1.470368 -0.296678 0.000000 168 3
1.486806 -0.198514 0.000000 169 3
1.496698 -0.099476 0.000000 170 3
1.500000 0.000000 0.000000 171 3
1.496698 0.099476 0.000000 172 3
1.486806 0.198514 0.000000 173 3
1.470368 0.296678 0.000000 174 3
1.492949 -0.145267 0.000000 175 3
1.499296 -0.045939 0.000000 176 3
1.499042 0.053592 0.000000 177 3
1.492188 0.152887 0.000000 178 3
1.478764 0.251508 0.000000 179 3
1.458829 0.349022 0.000000 180 3
1.432472 0.445000 0.000000 181 3
1.499980 0.007658 0.000000 182 3
1.496171 0.107116 0.000000 183 3
1.485773 0.206102 0.000000 184 3
1.468834 0.304181 0.000000 185 3
1.445428 0.400921 0.000000 186 3
1.415658 0.495895 0.000000 187 3
1.379655 0.588686 0.000000 188 3
1.491388 0.160502 0.000000 189 3
1.477461 0.259054 0.000000 190 3
1.457029 0.356465 0.000000 191 3
1.430181 0.452307 0.000000 192 3
1.397037 0.546157 0.000000 193 3
1.357742 0.637603 0.000000 194 3
1.312469 0.726241 0.000000 195 3
1.409919 -0.511985 0.000000 196 4
1.440769 -0.417355 0.000000 197 4
1.465275 -0.320888 0.000000 198 4
1.483330 -0.223009 0.000000 199 4
1.494854 -0.124147 0.000000 200 4
1.499796 -0.024739 0.000000 201 4
1.498135 0.074778 0.000000 202 4
1.454760 -0.365613 0.000000 203 4
1.475804 -0.268332 0.000000 204 4
1.490350 -0.169870 0.000000 205 4
1.498335 -0.070660 0.000000 206 4
1.499722 0.028862 0.000000 207 4
1.494507 0.128256 0.000000 208 4
1.482711 0.227085 0.000000 209 4
1.484449 -0.215433 0.000000 210 4
1.495468 -0.116514 0.000000 211 4
1.499903 -0.017082 0.000000 212 4
1.497734 0.082425 0.000000 213 4
1.488970 0.181570 0.000000 214 4
1.473651 0.279915 0.000000 215 4
1.451844 0.377027 0.000000 216 4
1.498676 -0.063010 0.000000 217 4
1.499555 0.036517 0.000000 218 4
1.493833 0.135884 0.000000 219 4
1.481533 0.234652 0.000000 220 4
1.462710 0.332387 0.000000 221 4
1.437446 0.428658 0.000000 222 4
1.405855 0.523042 0.000000 223 4
1.497293 0.090070 0.000000 224 4
1.488024 0.189169 0.000000 225 4
1.472203 0.287434 0.000000 226 4
1.449900 0.384434 0.000000 227 4
1.421214 0.479741 0.000000 228 4
1.386270 0.572937 0.000000 229 4
1.345222 0.663609 0.000000 230 4
1.480315 0.242212 0.000000 231 4
1.460994 0.339849 0.000000 232 4
1.435239 0.435991 0.000000 233 4
1.403166 0.530212 0.000000 234 4
1.364915 0.622099 0.000000 235 4
1.320654 0.711248 0.000000 236 4
1.270579 0.797264 0.000000 237 4
1.447919 0.391831 0.000000 238 4
1.418746 0.486991 0.000000 239 4
1.383327 0.580006 0.000000 240 4
1.341817 0.670468 0.000000 241 4
1.294399 0.757978 0.000000 242 4
1.241283 0.842150 0.000000 243 4
1.182701 0.922615 0.000000 244 4
1.472653 -0.285121 0.000000 245 5
1.488319 -0.186831 0.000000 246 5
1.497433 -0.087718 0.000000 247 5
1.499954 0.011781 0.000000 248 5
1.495870 0.111228 0.000000 249 5
1.485201 0.210185 0.000000 250 5
1.467993 0.308217 0.000000 251 5
1.494044 -0.133537 0.000000 252 5
1.499611 -0.034162 0.000000 253 5
1.498575 0.065364 0.000000 254 5
1.490941 0.164601 0.000000 255 5
1.476743 0.263115 0.000000 256 5
1.456043 0.360469 0.000000 257 5
1.428933 0.456237 0.000000 258 5
1.499874 0.019438 0.000000 259 5
1.495283 0.118863 0.000000 260 5
1.484109 0.217765 0.000000 261 5
1.466400 0.315708 0.000000 262 5
1.442235 0.412261 0.000000 263 5
1.411720 0.506998 0.000000 264 5
1.374989 0.599504 0.000000 265 5
1.490082 0.172211 0.000000 266 5
1.475381 0.270650 0.000000 267 5
1.454184 0.367898 0.000000 268 5
1.426585 0.463525 0.000000 269 5
1.392704 0.557113 0.000000 270 5
1.352692 0.648247 0.000000 271 5
1.306724 0.736527 0.000000 272 5
1.464769 0.323190 0.000000 273 5
1.440111 0.419618 0.000000 274 5
1.409113 0.514199 0.000000 275 5
1.371911 0.606515 0.000000 276 5
1.328668 0.696162 0.000000 277 5
1.279575 0.782743 0.000000 278 5
1.224849 0.865878 0.000000 279 5
1.424200 0.470802 0.000000 280 5
1.389842 0.564215 0.000000 281 5
1.349365 0.655144 0.000000 282 5
1.302947 0.743188 0.000000 283 5
1.250793 0.827960 0.000000 284 5
1.193131 0.909087 0.000000 285 5
1.130216 0.986211 0.000000 286 5
1.368797 0.613511 0.000000 287 5
1.325097 0.702936 0.000000 288 5
1.275563 0.789265 0.000000 289 5
1.220413 0.872120 0.000000 290 5
1.159889 0.951135 0.000000 291 5
1.094259 1.025962 0.000000 292 5
1.023811 1.096271 0.000000 293 5
1.499125 -0.051237 0.000000 294 6
1.499222 0.048294 0.000000 295 6
1.492719 0.147612 0.000000 296 6
1.479644 0.246280 0.000000 297 6
1.460054 0.343864 0.000000 298 6
1.434035 0.439934 0.000000 299 6
1.401703 0.534067 0.000000 300 6
1.496540 0.101827 0.000000 301 6
1.486492 0.200850 0.000000 302 6
1.469900 0.298988 0.000000 303 6
1.446836 0.395810 0.000000 304 6
1.417402 0.490889 0.000000 305 6
1.381727 0.583807 0.000000 306 6
1.339969 0.674154 0.000000 307 6
1.478367 0.253831 0.000000 308 6
1.458279 0.351313 0.000000 309 6
1.431771 0.447249 0.000000 310 6
1.398959 0.541216 0.000000 311 6
1.359987 0.632800 0.000000 312 6
1.315027 0.721598 0.000000 313 6
1.264278 0.807219 0.000000 314 6
1.444797 0.403191 0.000000 315 6
1.414877 0.498118 0.000000 316 6
1.378729 0.590853 0.000000 317 6
1.336510 0.680986 0.000000 318 6
1.288406 0.768121 0.000000 319 6
1.234630 0.851873 0.000000 320 6
1.175418 0.931876 0.000000 321 6
1.396177 0.548351 0.000000 322 6
1.356739 0.639735 0.000000 323 6
1.311326 0.728302 0.000000 324 6
1.260140 0.813662 0.000000 325 6
1.203406 0.895440 0.000000 326 6
1.141374 0.973276 0.000000 327 6
1.074316 1.046826 0.000000 328 6
1.333016 0.687800 0.000000 329 6
1.284468 0.774688 0.000000 330 6
1.230265 0.858165 0.000000 331 6
1.170646 0.937864 0.000000 332 6
1.105872 1.013434 0.000000 333 6
1.036229 1.084541 0.000000 334 6
0.962024 1.150874 0.000000 335 6
1.255970 0.820085 0.000000 336 6
1.198819 0.901572 0.000000 337 6
1.136390 0.979090 0.000000 338 6
1.068958 1.052297 0.000000 339 6
0.996819 1.120871 0.000000 340 6
0.920291 1.184510 0.000000 341 6
0.839712 1.242934 0.000000 342 6
